<?xml version="1.0" encoding="UTF-8"?> <svg xmlns="http://www.w3.org/2000/svg" id="Layer_2" data-name="Layer 2" viewBox="0 0 479.6 478.8"><defs><style> .cls-1 { fill: #fff; } .cls-2 { fill: #d9f1fd; } </style></defs><g id="Layer_1-2" data-name="Layer 1"><rect y="0" width="479.6" height="478.8" rx="114.13" ry="114.13"></rect><g><path class="cls-2" d="M84.62,261.09c2.21,9.75,9.21,14.03,20.45,14.03s16-4.43,16-11.54c0-7.9-4.68-11.33-21.29-15.2-26.43-6.2-32.96-15.82-32.96-28.93,0-16.93,12.66-28.42,35.65-28.42,25.79,0,36.06,13.86,37.45,28.07h-21.16c-1.01-5.98-4.32-12.47-16.84-12.47-8.52,0-13.67,3.52-13.67,10.42s4.12,9.49,19.82,13.13c28.25,6.66,34.44,17.16,34.44,30.86,0,17.73-13.42,29.9-39.09,29.9s-37.64-12.14-39.96-29.84h21.16Z"></path><path class="cls-2" d="M224.85,247.67h-46.45v24.67h51.24l-2.49,17.21h-69.12v-97.12h68.87v17.21h-48.49v20.81h46.45v17.21Z"></path><path class="cls-1" d="M266.38,267.12l-7.58,22.43h-20.64l32.98-97.12h26.38l34.41,97.12h-22.08l-7.98-22.43h-35.48ZM297.34,249.91c-6.9-20.5-11.29-33.59-13.63-42.32h-.14c-2.39,9.57-7.25,24.81-12.77,42.32h26.55Z"></path><path class="cls-1" d="M344.38,192.44h21v79.91h48.38l-2.4,17.21h-66.98v-97.12Z"></path></g><rect x="365.3" y="185.55" width="58.5" height="110.85"></rect><rect class="cls-1" x="373.7" y="270" width="53.1" height="19.56"></rect></g></svg> 