<?xml version="1.0" encoding="UTF-8"?> <svg xmlns="http://www.w3.org/2000/svg" id="Layer_2" data-name="Layer 2" viewBox="0 0 1385.06 259.91"><defs><style> .cls-1 { fill: #f2fafc; } .cls-2 { fill: #c4e8ed; } </style></defs><g id="Layer_1-2" data-name="Layer 1"><g><path class="cls-1" d="M1375.94,80.95c-27.47,4.17-46.3,45.12-75.72,42.28-8.39-.81-16.17-5.32-24.6-5.54-17.4-.45-29.44,16.41-39.39,30.7-9.94,14.28-25.84,29.38-42.28,23.67-6.38-2.21-11.33-7.28-17.18-10.64-12.02-6.9-27.89-5.05-39,2.99-4.04,2.93-9.57,2.62-13.28-.72-4.29-3.84-11.08-5.82-16.6-3.63-10.16,4.04-15.28,15.14-19.44,25.25-4.43,10.78-8.87,21.56-13.3,32.34-2,4.86-4.59,10.29-9.62,11.82-8.86,2.7-15.35-8.21-18.18-17.03l-22.63-70.61c-6.94-21.65-35.27-26.69-49.27-8.77-15.27,19.53-27.81,41.2-37.07,64.2-5.92,14.71-18.68,33.59-32.66,26.09-5.35-2.87-8.08-8.89-10.45-14.48l-32.92-77.96c-1.89-4.47-6.58-7.12-11.37-6.34-14.01,2.28-25.85,15.81-37.53,25.59-10.49,8.78-28.53,12.7-38.54,6.65-4.06-2.45-9.23-1.69-12.62,1.62-8.68,8.46-24.7,10.41-33.2,1.08-7.66-8.41-11.29-23.77-22.66-23.38-7.94.28-12.65,8.75-15.76,16.07-12.65,29.75-25.3,59.5-37.95,89.25-4.34,10.22-14.1,22.54-23.8,17.15-3.58-1.99-5.56-5.92-7.3-9.62-14.84-31.57-28.14-63.86-39.83-96.72-2.45-6.87-5.49-14.5-12.21-17.32-12.36-5.19-23.13,9.31-34.33,16.68-13.34,8.78-32.32,5.83-43.92-4.75-4.83-4.4-12.43-3.55-16.02,1.9-4.79,7.26-10.34,14.01-16.55,20.11-6.05,5.95-16.29,2.77-17.85-5.57-1.36-7.26-2.71-14.51-4.07-21.77-1.09-5.81-2.62-12.3-7.65-15.4-5.44-3.35-12.47-1.24-18.47.96-12.73,4.65-25.46,9.3-38.2,13.96-10.62,3.88-21.75,7.83-32.98,6.43-4.95-.62-9.9-2.63-13.9-5.67-5.63-4.25-13.75-2.04-16.31,4.53-5.98,15.33-12.5,30.45-19.53,45.33-4.02,8.5-16.3,7.95-19.52-.88-8.12-22.27-16.25-44.54-24.38-66.82-1.55-4.26-3.83-9.17-8.3-9.96-3.46-.62-6.71,1.56-10.02,2.75-9.67,3.51-20.11-1.4-30.26-3.1-5.97-1-12.63,10.42-17.34,21.82-3.31,8.03-14.35,8.86-18.84,1.42-13.22-21.88-26.07-53.51-43.62-61.09-24.52-10.6-55.34-11.06-81.32-16.34C20.99,56.4,2.24,46.79.19,33.77c-.44-2.77-.12-5.7,1.15-8.75,3.85-9.21,14.92-12.79,24.79-14.2,53.07-7.62,106.36,15.71,159.84,11.85,39.14-2.82,78.32-20.1,116.4-10.61,17.19,4.28,32.94,13.86,50.49,16.32,35.18,4.93,68.85-19.5,104.32-17.62,22.46,1.18,44.17,12.92,66.43,9.68,11.28-1.64,21.6-7.02,32.24-11.11,46.12-17.72,101.08-9.73,140.55,19.85,3.66,2.74,8.65,2.86,12.41.26,35.03-24.29,82.39-25.05,124.9-17.74,45.08,7.75,89.28,23.18,135.02,22.95,45.77-.23,90.06-16.16,135.67-19.97,27.54-2.3,55.23-.17,82.78,1.97,41.66,3.23,83.32,6.46,124.98,9.69,17.27,1.34,35.19,2.86,50.25,11.44,11.43,6.51,20.7,18.32,22.51,30.94.02.18.05.36.07.55.71,5.69-3.36,10.82-9.04,11.68h0Z"></path><path class="cls-2" d="M1375.94,80.95c-27.47,4.17-46.3,45.12-75.72,42.28-8.39-.81-16.17-5.32-24.6-5.54-17.4-.45-29.44,16.41-39.39,30.7-9.94,14.28-25.84,29.38-42.28,23.67-6.38-2.21-11.33-7.28-17.18-10.64-12.02-6.9-27.89-5.05-39,2.99-4.04,2.93-9.57,2.62-13.28-.72-4.29-3.84-11.08-5.82-16.6-3.63-10.16,4.04-15.28,15.14-19.44,25.25-4.43,10.78-8.87,21.56-13.3,32.34-2,4.86-4.59,10.29-9.62,11.82-8.86,2.7-15.35-8.21-18.18-17.03l-22.63-70.61c-6.94-21.65-35.27-26.69-49.27-8.77-15.27,19.53-27.81,41.2-37.07,64.2-5.92,14.71-18.68,33.59-32.66,26.09-5.35-2.87-8.08-8.89-10.45-14.48l-32.92-77.96c-1.89-4.47-6.58-7.12-11.37-6.34-14.01,2.28-25.85,15.81-37.53,25.59-10.49,8.78-28.53,12.7-38.54,6.65-4.06-2.45-9.23-1.69-12.62,1.62-8.68,8.46-24.7,10.41-33.2,1.08-7.66-8.41-11.29-23.77-22.66-23.38-7.94.28-12.65,8.75-15.76,16.07-12.65,29.75-25.3,59.5-37.95,89.25-4.34,10.22-14.1,22.54-23.8,17.15-3.58-1.99-5.56-5.92-7.3-9.62-14.84-31.57-28.14-63.86-39.83-96.72-2.45-6.87-5.49-14.5-12.21-17.32-12.36-5.19-23.13,9.31-34.33,16.68-13.34,8.78-32.32,5.83-43.92-4.75-4.83-4.4-12.43-3.55-16.02,1.9-4.79,7.26-10.34,14.01-16.55,20.11-6.05,5.95-16.29,2.77-17.85-5.57-1.36-7.26-2.71-14.51-4.07-21.77-1.09-5.81-2.62-12.3-7.65-15.4-5.44-3.35-12.47-1.24-18.47.96-12.73,4.65-25.46,9.3-38.2,13.96-10.62,3.88-21.75,7.83-32.98,6.43-4.95-.62-9.9-2.63-13.9-5.67-5.63-4.25-13.75-2.04-16.31,4.53-5.98,15.33-12.5,30.45-19.53,45.33-4.02,8.5-16.3,7.95-19.52-.88-8.12-22.27-16.25-44.54-24.38-66.82-1.55-4.26-3.83-9.17-8.3-9.96-3.46-.62-6.71,1.56-10.02,2.75-9.67,3.51-20.11-1.4-30.26-3.1-5.97-1-12.63,10.42-17.34,21.82-3.31,8.03-14.35,8.86-18.84,1.42-13.22-21.88-26.07-53.51-43.62-61.09-24.52-10.6-55.34-11.06-81.32-16.34C20.99,56.4,2.24,46.79.19,33.77c12.89,1.38,26.05,10.03,39.55,13.55,29.81,7.78,61.67,7.86,90.04,20.87,17.16,7.87,32.8,20.69,51.61,22.34,18.44,1.61,36.93-7.97,55.06-4.24,12.07,2.49,22.08,10.51,32.52,17.05,34.69,21.76,78.64,28.16,118.1,17.22,18.01-5,36.16-13.5,54.55-10.17,12.03,2.18,22.54,9.21,33.93,13.67,23.07,9.03,50.25,6.82,71.56-5.82,6.83-4.05,13.96-9.32,21.81-8.2,7.32,1.04,12.58,7.26,17.98,12.31,22.48,21.03,59.03,25.17,85.63,9.69,11.87-6.91,23.58-17.66,37.14-15.43,6.02.99,11.27,4.49,16.76,7.17,17.07,8.31,36.79,8.63,55.78,8.78,15.13.12,30.98.07,44.31-7.08,10.16-5.45,18.7-14.92,30.15-16.25,12.91-1.5,24.18,7.81,35.76,13.72,20.72,10.57,46.58,10.38,67.14-.48,13.51-7.14,26.24-18.91,41.46-17.59,13.34,1.16,23.36,12.05,34.23,19.86,28.79,20.71,66.98,21.04,102.43,20.55,14.21-.2,28.41-.39,42.62-.58,8.05-.11,16.33-.27,23.72-3.47,9.27-4.02,15.88-12.26,23.55-18.84,39.76-34.09,106.35-35.23,157.32-53.67.02.18.05.36.07.55.71,5.69-3.36,10.82-9.04,11.68h0Z"></path></g></g></svg> 